<?xml version="1.0" encoding="UTF-8" standalone="no"?>
<!DOCTYPE svg PUBLIC "-//W3C//DTD SVG 1.1//EN" "http://www.w3.org/Graphics/SVG/1.1/DTD/svg11.dtd">
<svg width="100%" height="100%" viewBox="0 0 284 57" version="1.1" xmlns="http://www.w3.org/2000/svg" xmlns:xlink="http://www.w3.org/1999/xlink" xml:space="preserve" xmlns:serif="http://www.serif.com/" style="fill-rule:evenodd;clip-rule:evenodd;stroke-linejoin:round;stroke-miterlimit:2;">
    <g transform="matrix(2.04202e-17,0.333488,-0.7918,4.84838e-17,276.338,2.33441)">
        <rect x="-7" y="-9" width="170" height="358" style="fill:rgb(235,235,235);"/>
    </g>
    <g transform="matrix(1,-9.16675e-33,4.82347e-32,1,17.4646,45.497)">
        <g transform="matrix(50,0,0,50,0,0)">
            <path d="M0.481,-0L0.114,-0L0.114,-0.638L0.202,-0.638L0.202,-0.074L0.481,-0.074L0.481,-0Z" style="fill-rule:nonzero;"/>
        </g>
        <g transform="matrix(50,0,0,50,27.4902,0)">
            <path d="M0.523,-0.323C0.523,-0.266 0.516,-0.216 0.503,-0.175C0.489,-0.133 0.471,-0.099 0.448,-0.072C0.425,-0.044 0.398,-0.024 0.367,-0.011C0.337,0.002 0.304,0.009 0.27,0.009C0.229,0.009 0.193,0.001 0.163,-0.013C0.132,-0.028 0.107,-0.05 0.087,-0.078C0.067,-0.106 0.052,-0.14 0.042,-0.18C0.033,-0.22 0.028,-0.265 0.028,-0.316C0.028,-0.373 0.035,-0.422 0.048,-0.463C0.061,-0.505 0.079,-0.539 0.102,-0.567C0.125,-0.594 0.152,-0.614 0.183,-0.627C0.213,-0.64 0.246,-0.647 0.28,-0.647C0.321,-0.647 0.357,-0.639 0.387,-0.625C0.417,-0.61 0.443,-0.588 0.463,-0.56C0.483,-0.532 0.498,-0.499 0.508,-0.458C0.518,-0.418 0.523,-0.373 0.523,-0.323ZM0.433,-0.317C0.433,-0.354 0.43,-0.389 0.424,-0.42C0.418,-0.451 0.409,-0.478 0.396,-0.5C0.384,-0.522 0.367,-0.54 0.347,-0.552C0.327,-0.565 0.303,-0.571 0.275,-0.571C0.248,-0.571 0.224,-0.564 0.204,-0.551C0.185,-0.538 0.168,-0.52 0.156,-0.497C0.143,-0.475 0.134,-0.448 0.127,-0.418C0.121,-0.387 0.118,-0.355 0.118,-0.321C0.118,-0.283 0.121,-0.249 0.127,-0.218C0.133,-0.186 0.142,-0.16 0.155,-0.137C0.167,-0.115 0.183,-0.098 0.203,-0.085C0.223,-0.073 0.247,-0.067 0.275,-0.067C0.302,-0.067 0.326,-0.073 0.346,-0.087C0.366,-0.1 0.382,-0.118 0.395,-0.14C0.408,-0.163 0.417,-0.189 0.423,-0.22C0.43,-0.25 0.433,-0.282 0.433,-0.317Z" style="fill-rule:nonzero;"/>
        </g>
        <g transform="matrix(50,0,0,50,54.9805,0)">
            <path d="M0.491,-0.529C0.467,-0.542 0.443,-0.551 0.418,-0.558C0.393,-0.565 0.366,-0.569 0.336,-0.569C0.302,-0.569 0.272,-0.563 0.246,-0.551C0.219,-0.539 0.197,-0.522 0.179,-0.5C0.161,-0.478 0.147,-0.451 0.137,-0.42C0.128,-0.389 0.123,-0.355 0.123,-0.318C0.123,-0.279 0.127,-0.244 0.135,-0.213C0.143,-0.182 0.155,-0.156 0.171,-0.134C0.188,-0.113 0.209,-0.096 0.235,-0.085C0.261,-0.074 0.292,-0.068 0.328,-0.068C0.334,-0.068 0.341,-0.068 0.348,-0.069C0.355,-0.069 0.362,-0.07 0.37,-0.072C0.377,-0.073 0.384,-0.074 0.39,-0.076C0.397,-0.077 0.403,-0.079 0.408,-0.081L0.408,-0.284L0.278,-0.284L0.278,-0.356L0.494,-0.356L0.494,-0.03C0.481,-0.024 0.467,-0.018 0.452,-0.013C0.437,-0.008 0.422,-0.004 0.406,-0.001C0.391,0.002 0.376,0.005 0.36,0.006C0.345,0.008 0.33,0.009 0.316,0.009C0.272,0.009 0.233,0.002 0.198,-0.012C0.163,-0.025 0.133,-0.046 0.109,-0.073C0.084,-0.099 0.065,-0.133 0.052,-0.173C0.039,-0.213 0.032,-0.259 0.032,-0.312C0.032,-0.364 0.04,-0.411 0.054,-0.453C0.069,-0.494 0.089,-0.53 0.116,-0.558C0.142,-0.587 0.174,-0.609 0.212,-0.624C0.249,-0.639 0.29,-0.647 0.335,-0.647C0.364,-0.647 0.391,-0.644 0.417,-0.639C0.443,-0.634 0.467,-0.626 0.491,-0.615L0.491,-0.529Z" style="fill-rule:nonzero;"/>
        </g>
        <g transform="matrix(50,0,0,50,82.4707,0)">
            <path d="M0.523,-0.323C0.523,-0.266 0.516,-0.216 0.503,-0.175C0.489,-0.133 0.471,-0.099 0.448,-0.072C0.425,-0.044 0.398,-0.024 0.367,-0.011C0.337,0.002 0.304,0.009 0.27,0.009C0.229,0.009 0.193,0.001 0.163,-0.013C0.132,-0.028 0.107,-0.05 0.087,-0.078C0.067,-0.106 0.052,-0.14 0.042,-0.18C0.033,-0.22 0.028,-0.265 0.028,-0.316C0.028,-0.373 0.035,-0.422 0.048,-0.463C0.061,-0.505 0.079,-0.539 0.102,-0.567C0.125,-0.594 0.152,-0.614 0.183,-0.627C0.213,-0.64 0.246,-0.647 0.28,-0.647C0.321,-0.647 0.357,-0.639 0.387,-0.625C0.417,-0.61 0.443,-0.588 0.463,-0.56C0.483,-0.532 0.498,-0.499 0.508,-0.458C0.518,-0.418 0.523,-0.373 0.523,-0.323ZM0.433,-0.317C0.433,-0.354 0.43,-0.389 0.424,-0.42C0.418,-0.451 0.409,-0.478 0.396,-0.5C0.384,-0.522 0.367,-0.54 0.347,-0.552C0.327,-0.565 0.303,-0.571 0.275,-0.571C0.248,-0.571 0.224,-0.564 0.204,-0.551C0.185,-0.538 0.168,-0.52 0.156,-0.497C0.143,-0.475 0.134,-0.448 0.127,-0.418C0.121,-0.387 0.118,-0.355 0.118,-0.321C0.118,-0.283 0.121,-0.249 0.127,-0.218C0.133,-0.186 0.142,-0.16 0.155,-0.137C0.167,-0.115 0.183,-0.098 0.203,-0.085C0.223,-0.073 0.247,-0.067 0.275,-0.067C0.302,-0.067 0.326,-0.073 0.346,-0.087C0.366,-0.1 0.382,-0.118 0.395,-0.14C0.408,-0.163 0.417,-0.189 0.423,-0.22C0.43,-0.25 0.433,-0.282 0.433,-0.317Z" style="fill-rule:nonzero;"/>
        </g>
        <g transform="matrix(50,0,0,50,137.451,0)">
            <path d="M0.481,-0L0.114,-0L0.114,-0.638L0.202,-0.638L0.202,-0.074L0.481,-0.074L0.481,-0Z" style="fill-rule:nonzero;"/>
        </g>
        <g transform="matrix(50,0,0,50,164.941,0)">
            <path d="M0.523,-0.323C0.523,-0.266 0.516,-0.216 0.503,-0.175C0.489,-0.133 0.471,-0.099 0.448,-0.072C0.425,-0.044 0.398,-0.024 0.367,-0.011C0.337,0.002 0.304,0.009 0.27,0.009C0.229,0.009 0.193,0.001 0.163,-0.013C0.132,-0.028 0.107,-0.05 0.087,-0.078C0.067,-0.106 0.052,-0.14 0.042,-0.18C0.033,-0.22 0.028,-0.265 0.028,-0.316C0.028,-0.373 0.035,-0.422 0.048,-0.463C0.061,-0.505 0.079,-0.539 0.102,-0.567C0.125,-0.594 0.152,-0.614 0.183,-0.627C0.213,-0.64 0.246,-0.647 0.28,-0.647C0.321,-0.647 0.357,-0.639 0.387,-0.625C0.417,-0.61 0.443,-0.588 0.463,-0.56C0.483,-0.532 0.498,-0.499 0.508,-0.458C0.518,-0.418 0.523,-0.373 0.523,-0.323ZM0.433,-0.317C0.433,-0.354 0.43,-0.389 0.424,-0.42C0.418,-0.451 0.409,-0.478 0.396,-0.5C0.384,-0.522 0.367,-0.54 0.347,-0.552C0.327,-0.565 0.303,-0.571 0.275,-0.571C0.248,-0.571 0.224,-0.564 0.204,-0.551C0.185,-0.538 0.168,-0.52 0.156,-0.497C0.143,-0.475 0.134,-0.448 0.127,-0.418C0.121,-0.387 0.118,-0.355 0.118,-0.321C0.118,-0.283 0.121,-0.249 0.127,-0.218C0.133,-0.186 0.142,-0.16 0.155,-0.137C0.167,-0.115 0.183,-0.098 0.203,-0.085C0.223,-0.073 0.247,-0.067 0.275,-0.067C0.302,-0.067 0.326,-0.073 0.346,-0.087C0.366,-0.1 0.382,-0.118 0.395,-0.14C0.408,-0.163 0.417,-0.189 0.423,-0.22C0.43,-0.25 0.433,-0.282 0.433,-0.317Z" style="fill-rule:nonzero;"/>
        </g>
        <g transform="matrix(50,0,0,50,192.432,0)">
            <path d="M0.491,-0.529C0.467,-0.542 0.443,-0.551 0.418,-0.558C0.393,-0.565 0.366,-0.569 0.336,-0.569C0.302,-0.569 0.272,-0.563 0.246,-0.551C0.219,-0.539 0.197,-0.522 0.179,-0.5C0.161,-0.478 0.147,-0.451 0.137,-0.42C0.128,-0.389 0.123,-0.355 0.123,-0.318C0.123,-0.279 0.127,-0.244 0.135,-0.213C0.143,-0.182 0.155,-0.156 0.171,-0.134C0.188,-0.113 0.209,-0.096 0.235,-0.085C0.261,-0.074 0.292,-0.068 0.328,-0.068C0.334,-0.068 0.341,-0.068 0.348,-0.069C0.355,-0.069 0.362,-0.07 0.37,-0.072C0.377,-0.073 0.384,-0.074 0.39,-0.076C0.397,-0.077 0.403,-0.079 0.408,-0.081L0.408,-0.284L0.278,-0.284L0.278,-0.356L0.494,-0.356L0.494,-0.03C0.481,-0.024 0.467,-0.018 0.452,-0.013C0.437,-0.008 0.422,-0.004 0.406,-0.001C0.391,0.002 0.376,0.005 0.36,0.006C0.345,0.008 0.33,0.009 0.316,0.009C0.272,0.009 0.233,0.002 0.198,-0.012C0.163,-0.025 0.133,-0.046 0.109,-0.073C0.084,-0.099 0.065,-0.133 0.052,-0.173C0.039,-0.213 0.032,-0.259 0.032,-0.312C0.032,-0.364 0.04,-0.411 0.054,-0.453C0.069,-0.494 0.089,-0.53 0.116,-0.558C0.142,-0.587 0.174,-0.609 0.212,-0.624C0.249,-0.639 0.29,-0.647 0.335,-0.647C0.364,-0.647 0.391,-0.644 0.417,-0.639C0.443,-0.634 0.467,-0.626 0.491,-0.615L0.491,-0.529Z" style="fill-rule:nonzero;"/>
        </g>
        <g transform="matrix(50,0,0,50,219.922,0)">
            <path d="M0.523,-0.323C0.523,-0.266 0.516,-0.216 0.503,-0.175C0.489,-0.133 0.471,-0.099 0.448,-0.072C0.425,-0.044 0.398,-0.024 0.367,-0.011C0.337,0.002 0.304,0.009 0.27,0.009C0.229,0.009 0.193,0.001 0.163,-0.013C0.132,-0.028 0.107,-0.05 0.087,-0.078C0.067,-0.106 0.052,-0.14 0.042,-0.18C0.033,-0.22 0.028,-0.265 0.028,-0.316C0.028,-0.373 0.035,-0.422 0.048,-0.463C0.061,-0.505 0.079,-0.539 0.102,-0.567C0.125,-0.594 0.152,-0.614 0.183,-0.627C0.213,-0.64 0.246,-0.647 0.28,-0.647C0.321,-0.647 0.357,-0.639 0.387,-0.625C0.417,-0.61 0.443,-0.588 0.463,-0.56C0.483,-0.532 0.498,-0.499 0.508,-0.458C0.518,-0.418 0.523,-0.373 0.523,-0.323ZM0.433,-0.317C0.433,-0.354 0.43,-0.389 0.424,-0.42C0.418,-0.451 0.409,-0.478 0.396,-0.5C0.384,-0.522 0.367,-0.54 0.347,-0.552C0.327,-0.565 0.303,-0.571 0.275,-0.571C0.248,-0.571 0.224,-0.564 0.204,-0.551C0.185,-0.538 0.168,-0.52 0.156,-0.497C0.143,-0.475 0.134,-0.448 0.127,-0.418C0.121,-0.387 0.118,-0.355 0.118,-0.321C0.118,-0.283 0.121,-0.249 0.127,-0.218C0.133,-0.186 0.142,-0.16 0.155,-0.137C0.167,-0.115 0.183,-0.098 0.203,-0.085C0.223,-0.073 0.247,-0.067 0.275,-0.067C0.302,-0.067 0.326,-0.073 0.346,-0.087C0.366,-0.1 0.382,-0.118 0.395,-0.14C0.408,-0.163 0.417,-0.189 0.423,-0.22C0.43,-0.25 0.433,-0.282 0.433,-0.317Z" style="fill-rule:nonzero;"/>
        </g>
    </g>
</svg>
